<?xml version="1.0" encoding="UTF-8"?>
<!-- Generator: visioncortex VTracer 0.6.3 -->
<svg version="1.1" xmlns="http://www.w3.org/2000/svg" width="1280" height="1280">
<path d="M0 0 C1.24 -0 1.24 -0 2.5 -0.01 C5.26 -0.02 8.02 -0.01 10.78 -0 C12.79 -0.01 14.8 -0.01 16.8 -0.01 C22.34 -0.02 27.88 -0.02 33.42 -0.01 C39.44 -0.01 45.46 -0.01 51.47 -0.02 C62.03 -0.03 72.58 -0.03 83.14 -0.03 C94.46 -0.02 105.79 -0.02 117.11 -0.03 C117.83 -0.03 118.54 -0.03 119.28 -0.03 C122.19 -0.03 125.1 -0.03 128.02 -0.03 C157.59 -0.05 187.17 -0.05 216.74 -0.05 C220.83 -0.05 224.92 -0.05 229.01 -0.05 C229.82 -0.05 230.63 -0.05 231.47 -0.05 C249.45 -0.05 267.44 -0.05 285.43 -0.05 C289.53 -0.06 293.64 -0.06 297.74 -0.06 C299.39 -0.06 301.04 -0.06 302.69 -0.06 C303.51 -0.06 304.32 -0.06 305.16 -0.06 C306.82 -0.06 308.47 -0.06 310.12 -0.06 C357.01 -0.07 403.9 -0.07 450.79 -0.07 C452.09 -0.07 452.09 -0.07 453.42 -0.07 C463.11 -0.07 472.79 -0.07 482.47 -0.06 C483.35 -0.06 484.22 -0.06 485.12 -0.06 C492.39 -0.06 492.39 -0.06 495.73 -0.06 C551.66 -0.06 607.59 -0.07 663.51 -0.08 C677.61 -0.09 691.7 -0.09 705.79 -0.1 C706.66 -0.1 707.53 -0.1 708.42 -0.1 C735.16 -0.11 761.9 -0.11 788.64 -0.11 C789.9 -0.11 789.9 -0.11 791.18 -0.11 C809.61 -0.11 828.03 -0.11 846.46 -0.11 C853.05 -0.11 859.64 -0.11 866.24 -0.11 C867.88 -0.11 869.52 -0.11 871.16 -0.11 C897.3 -0.11 923.44 -0.12 949.58 -0.13 C976.64 -0.14 1003.7 -0.14 1030.76 -0.13 C1033.67 -0.13 1036.57 -0.13 1039.48 -0.12 C1040.19 -0.12 1040.9 -0.12 1041.64 -0.12 C1052.93 -0.12 1064.23 -0.12 1075.52 -0.13 C1086.62 -0.14 1097.73 -0.14 1108.83 -0.13 C1114.77 -0.12 1120.71 -0.12 1126.65 -0.13 C1132.05 -0.14 1137.45 -0.14 1142.86 -0.13 C1144.8 -0.12 1146.74 -0.13 1148.69 -0.13 C1167.77 -0.21 1182.71 3.61 1198.01 15.77 C1199.49 17.25 1199.49 17.25 1199.49 19.25 C1200.15 19.25 1200.81 19.25 1201.49 19.25 C1203.2 21.15 1204.76 23.04 1206.3 25.06 C1206.75 25.65 1207.2 26.24 1207.67 26.84 C1211.48 31.97 1214.27 37.25 1216.49 43.25 C1217.01 44.58 1217.01 44.58 1217.54 45.94 C1218.63 49.72 1218.72 52.9 1218.69 56.84 C1218.68 57.54 1218.68 58.24 1218.68 58.96 C1218.67 61.19 1218.64 63.41 1218.62 65.63 C1218.61 67.14 1218.6 68.66 1218.59 70.17 C1218.57 73.86 1218.53 77.56 1218.49 81.25 C1217.83 81.25 1217.17 81.25 1216.49 81.25 C1216.55 82.1 1216.62 82.95 1216.68 83.83 C1216.15 93.53 1208.18 104.58 1201.49 111.25 C1200.83 111.25 1200.17 111.25 1199.49 111.25 C1199.49 111.91 1199.49 112.57 1199.49 113.25 C1181.23 129.81 1158.84 131.72 1135.3 131.63 C1133.32 131.63 1131.34 131.64 1129.35 131.64 C1123.93 131.65 1118.51 131.65 1113.08 131.64 C1107.17 131.63 1101.26 131.64 1095.35 131.65 C1085 131.66 1074.65 131.66 1064.3 131.65 C1053.2 131.64 1042.1 131.64 1031 131.65 C1030.29 131.65 1029.59 131.65 1028.87 131.65 C1026.01 131.65 1023.14 131.65 1020.28 131.65 C993.66 131.67 967.04 131.67 940.42 131.66 C939.63 131.66 938.85 131.66 938.03 131.66 C937.25 131.66 936.46 131.66 935.64 131.66 C911.58 131.65 887.53 131.65 863.47 131.65 C861.85 131.65 860.24 131.65 858.63 131.65 C852.15 131.65 845.67 131.66 839.19 131.66 C821.08 131.66 802.97 131.66 784.86 131.66 C783.63 131.66 783.63 131.66 782.37 131.66 C756.1 131.66 729.83 131.66 703.56 131.65 C702.28 131.65 702.28 131.65 700.98 131.65 C687.14 131.65 673.31 131.65 659.48 131.64 C604.62 131.63 549.76 131.63 494.9 131.64 C481.08 131.65 467.25 131.65 453.43 131.65 C452.15 131.65 452.15 131.65 450.85 131.65 C424.6 131.66 398.36 131.66 372.12 131.66 C371.29 131.66 370.47 131.66 369.62 131.66 C351.53 131.66 333.44 131.66 315.35 131.66 C308.88 131.66 302.41 131.65 295.93 131.65 C294.32 131.65 292.71 131.65 291.1 131.65 C267.05 131.65 243 131.65 218.95 131.66 C217.77 131.66 217.77 131.66 216.56 131.66 C215.77 131.66 214.99 131.66 214.18 131.66 C187.63 131.67 161.09 131.67 134.54 131.65 C131.69 131.65 128.84 131.65 125.99 131.65 C125.29 131.65 124.59 131.65 123.86 131.64 C112.8 131.64 101.73 131.64 90.66 131.65 C79.77 131.66 68.87 131.66 57.98 131.64 C52.16 131.64 46.34 131.63 40.51 131.64 C35.21 131.65 29.9 131.65 24.6 131.63 C22.7 131.63 20.8 131.63 18.9 131.64 C-0.85 131.71 -19.92 130.06 -36.51 118.25 C-36.51 117.59 -36.51 116.93 -36.51 116.25 C-37.13 115.94 -37.75 115.63 -38.38 115.31 C-39.76 114.63 -41.13 113.94 -42.51 113.25 C-42.51 112.59 -42.51 111.93 -42.51 111.25 C-43.17 111.25 -43.83 111.25 -44.51 111.25 C-46.21 109.35 -47.78 107.46 -49.32 105.44 C-49.77 104.85 -50.22 104.27 -50.68 103.66 C-54.49 98.54 -57.29 93.25 -59.51 87.25 C-60.02 85.92 -60.02 85.92 -60.55 84.55 C-62.17 78.98 -61.84 73.27 -61.82 67.51 C-61.82 65.32 -61.84 63.14 -61.87 60.95 C-61.87 59.54 -61.87 58.13 -61.87 56.72 C-61.87 55.46 -61.88 54.19 -61.88 52.89 C-61.45 48.68 -60.34 46.05 -58.51 42.25 C-57.77 40.44 -57.04 38.63 -56.32 36.81 C-55.98 35.95 -55.63 35.08 -55.28 34.19 C-55.02 33.55 -54.77 32.91 -54.51 32.25 C-53.85 32.25 -53.19 32.25 -52.51 32.25 C-52.41 31.69 -52.32 31.13 -52.22 30.55 C-51.33 27.69 -49.92 25.85 -48.07 23.5 C-47.45 22.7 -46.84 21.9 -46.2 21.08 C-45.64 20.48 -45.08 19.87 -44.51 19.25 C-43.85 19.25 -43.19 19.25 -42.51 19.25 C-42.51 18.59 -42.51 17.93 -42.51 17.25 C-30.14 6.92 -16.32 -0.1 0 0 Z " fill="#000000" transform="translate(61.50865298509598,126.74815100431442)"/>
<path d="M0 0 C1.98 -0 3.97 -0.01 5.95 -0.01 C11.37 -0.02 16.8 -0.02 22.22 -0.01 C28.13 -0 34.04 -0.01 39.95 -0.02 C50.31 -0.03 60.66 -0.03 71.01 -0.02 C82.11 -0.01 93.21 -0.01 104.31 -0.02 C105.01 -0.02 105.71 -0.02 106.44 -0.02 C109.3 -0.02 112.16 -0.02 115.02 -0.02 C141.64 -0.04 168.26 -0.04 194.88 -0.03 C195.67 -0.03 196.46 -0.03 197.27 -0.03 C198.06 -0.03 198.85 -0.03 199.66 -0.03 C223.72 -0.02 247.78 -0.02 271.84 -0.02 C273.45 -0.02 275.06 -0.02 276.67 -0.02 C283.15 -0.03 289.63 -0.03 296.11 -0.03 C314.22 -0.03 332.33 -0.03 350.44 -0.03 C351.68 -0.03 351.68 -0.03 352.94 -0.03 C379.21 -0.03 405.48 -0.03 431.75 -0.02 C433.03 -0.02 433.03 -0.02 434.33 -0.02 C448.16 -0.02 461.99 -0.02 475.83 -0.01 C530.68 0 585.54 0 640.4 -0.01 C654.23 -0.02 668.05 -0.02 681.88 -0.02 C682.73 -0.02 683.58 -0.02 684.46 -0.02 C710.7 -0.03 736.94 -0.03 763.19 -0.03 C764.42 -0.03 764.42 -0.03 765.68 -0.03 C783.77 -0.03 801.86 -0.03 819.95 -0.03 C826.43 -0.03 832.9 -0.03 839.37 -0.02 C840.98 -0.02 842.59 -0.02 844.2 -0.02 C868.25 -0.02 892.3 -0.02 916.36 -0.03 C917.54 -0.03 917.54 -0.03 918.74 -0.03 C919.53 -0.03 920.32 -0.03 921.13 -0.03 C947.67 -0.04 974.22 -0.04 1000.76 -0.02 C1003.61 -0.02 1006.47 -0.02 1009.32 -0.02 C1010.02 -0.02 1010.72 -0.02 1011.44 -0.02 C1022.51 -0.01 1033.58 -0.01 1044.64 -0.02 C1055.54 -0.03 1066.43 -0.03 1077.32 -0.01 C1083.15 -0.01 1088.97 -0 1094.79 -0.01 C1100.1 -0.02 1105.4 -0.02 1110.7 -0 C1112.6 -0 1114.5 -0 1116.4 -0.01 C1137.63 -0.09 1156.45 2.11 1173.81 15.38 C1174.57 15.9 1175.32 16.42 1176.09 16.96 C1176.66 17.43 1177.23 17.9 1177.81 18.38 C1177.81 19.04 1177.81 19.7 1177.81 20.38 C1178.47 20.38 1179.13 20.38 1179.81 20.38 C1181.52 22.28 1183.08 24.17 1184.63 26.19 C1185.07 26.78 1185.52 27.36 1185.99 27.97 C1189.8 33.09 1192.59 38.38 1194.81 44.38 C1195.16 45.27 1195.5 46.16 1195.85 47.08 C1197.47 52.65 1197.15 58.36 1197.13 64.12 C1197.13 66.31 1197.15 68.49 1197.17 70.68 C1197.18 72.09 1197.18 73.5 1197.18 74.9 C1197.18 76.8 1197.18 76.8 1197.19 78.74 C1196.75 82.94 1195.63 85.59 1193.81 89.38 C1193.25 90.98 1192.69 92.59 1192.13 94.19 C1190.12 99.28 1187.14 103.1 1183.62 107.25 C1181.68 109.45 1181.68 109.45 1179.81 112.38 C1179.15 112.38 1178.49 112.38 1177.81 112.38 C1177.81 113.04 1177.81 113.7 1177.81 114.38 C1166.29 125.19 1151.09 131.73 1135.3 131.63 C1134.48 131.63 1133.66 131.64 1132.81 131.64 C1130.05 131.65 1127.29 131.64 1124.52 131.63 C1122.52 131.63 1120.51 131.64 1118.5 131.64 C1112.96 131.65 1107.42 131.65 1101.88 131.64 C1095.87 131.64 1089.85 131.64 1083.83 131.65 C1073.28 131.66 1062.72 131.66 1052.17 131.66 C1040.84 131.65 1029.52 131.65 1018.19 131.66 C1017.48 131.66 1016.76 131.66 1016.03 131.66 C1013.11 131.66 1010.2 131.66 1007.29 131.66 C977.71 131.68 948.14 131.68 918.56 131.68 C914.47 131.68 910.39 131.68 906.3 131.68 C905.49 131.68 904.68 131.68 903.84 131.68 C885.85 131.68 867.87 131.68 849.88 131.68 C845.77 131.68 841.67 131.69 837.56 131.69 C835.91 131.69 834.26 131.69 832.62 131.69 C831.8 131.69 830.98 131.69 830.14 131.69 C828.49 131.69 826.84 131.69 825.18 131.69 C778.29 131.7 731.4 131.7 684.51 131.7 C683.21 131.7 683.21 131.7 681.88 131.7 C672.2 131.7 662.51 131.7 652.83 131.69 C651.96 131.69 651.08 131.69 650.18 131.69 C642.92 131.69 642.92 131.69 639.57 131.69 C583.65 131.69 527.72 131.69 471.79 131.71 C457.7 131.72 443.61 131.72 429.51 131.73 C428.21 131.73 428.21 131.73 426.88 131.73 C400.15 131.74 373.41 131.74 346.67 131.74 C345.41 131.74 345.41 131.74 344.12 131.74 C325.7 131.74 307.27 131.74 288.85 131.74 C282.25 131.74 275.66 131.74 269.07 131.74 C267.43 131.74 265.79 131.74 264.15 131.74 C238.01 131.74 211.86 131.75 185.72 131.76 C158.66 131.77 131.6 131.77 104.54 131.76 C101.64 131.76 98.73 131.75 95.83 131.75 C95.11 131.75 94.4 131.75 93.67 131.75 C82.37 131.75 71.08 131.75 59.79 131.76 C48.68 131.77 37.58 131.77 26.48 131.76 C20.54 131.75 14.6 131.75 8.66 131.76 C3.25 131.77 -2.15 131.77 -7.55 131.76 C-9.5 131.75 -11.44 131.76 -13.38 131.76 C-30.27 131.83 -45.51 129.26 -59.19 118.38 C-59.19 117.72 -59.19 117.06 -59.19 116.38 C-60.84 115.72 -62.49 115.06 -64.19 114.38 C-64.19 113.72 -64.19 113.06 -64.19 112.38 C-64.85 112.38 -65.51 112.38 -66.19 112.38 C-68.13 110.3 -68.13 110.3 -70.31 107.57 C-71.04 106.67 -71.76 105.78 -72.51 104.86 C-74.19 102.38 -74.19 102.38 -74.19 99.38 C-74.85 99.38 -75.51 99.38 -76.19 99.38 C-76.98 97.67 -77.77 95.96 -78.56 94.25 C-79 93.3 -79.44 92.35 -79.9 91.37 C-83.21 83.68 -83.53 76.89 -83.5 68.64 C-83.5 66.45 -83.52 64.26 -83.55 62.07 C-83.55 60.67 -83.55 59.26 -83.55 57.85 C-83.55 56.58 -83.56 55.32 -83.56 54.01 C-83.13 49.81 -82.01 47.17 -80.19 43.38 C-79.62 41.77 -79.06 40.17 -78.5 38.57 C-76.5 33.47 -73.52 29.65 -69.99 25.51 C-68.06 23.31 -68.06 23.31 -66.19 20.38 C-65.53 20.38 -64.87 20.38 -64.19 20.38 C-64.19 19.72 -64.19 19.06 -64.19 18.38 C-45.93 1.82 -23.53 -0.1 0 0 Z " fill="#000000" transform="translate(83.18702697753906,1021.6224765777588)"/>
<path d="M0 0 C1.24 -0 1.24 -0 2.5 -0.01 C5.25 -0.02 8.01 -0.01 10.76 -0 C12.77 -0.01 14.77 -0.01 16.78 -0.01 C22.31 -0.02 27.83 -0.02 33.36 -0.01 C39.37 -0.01 45.38 -0.01 51.38 -0.02 C61.92 -0.03 72.45 -0.03 82.99 -0.03 C94.29 -0.02 105.6 -0.02 116.9 -0.03 C117.97 -0.03 117.97 -0.03 119.06 -0.03 C121.97 -0.03 124.88 -0.03 127.79 -0.03 C157.31 -0.05 186.83 -0.05 216.35 -0.05 C220.43 -0.05 224.51 -0.05 228.59 -0.05 C229.4 -0.05 230.21 -0.05 231.05 -0.05 C249 -0.05 266.95 -0.05 284.91 -0.05 C289.01 -0.06 293.11 -0.06 297.21 -0.06 C298.85 -0.06 300.5 -0.06 302.14 -0.06 C302.96 -0.06 303.77 -0.06 304.61 -0.06 C306.26 -0.06 307.91 -0.06 309.56 -0.06 C356.37 -0.07 403.17 -0.07 449.98 -0.07 C450.85 -0.07 451.71 -0.07 452.61 -0.07 C462.27 -0.07 471.94 -0.07 481.6 -0.06 C482.91 -0.06 482.91 -0.06 484.25 -0.06 C491.5 -0.06 491.5 -0.06 494.84 -0.06 C550.66 -0.06 606.49 -0.07 662.31 -0.08 C676.38 -0.09 690.45 -0.09 704.51 -0.1 C705.81 -0.1 705.81 -0.1 707.14 -0.1 C733.83 -0.11 760.52 -0.11 787.21 -0.11 C788.05 -0.11 788.89 -0.11 789.75 -0.11 C808.14 -0.11 826.54 -0.11 844.93 -0.11 C851.51 -0.11 858.09 -0.11 864.67 -0.11 C866.31 -0.11 867.95 -0.11 869.58 -0.11 C895.68 -0.11 921.77 -0.12 947.87 -0.13 C974.88 -0.14 1001.89 -0.14 1028.9 -0.13 C1031.8 -0.13 1034.7 -0.13 1037.6 -0.12 C1038.67 -0.12 1038.67 -0.12 1039.75 -0.12 C1051.03 -0.12 1062.3 -0.12 1073.57 -0.13 C1084.65 -0.14 1095.74 -0.14 1106.82 -0.13 C1112.75 -0.12 1118.68 -0.12 1124.61 -0.13 C1130 -0.14 1135.39 -0.14 1140.78 -0.13 C1142.72 -0.12 1144.66 -0.13 1146.6 -0.13 C1156.29 -0.17 1165.16 -0.14 1174.38 3.25 C1175.26 3.55 1176.14 3.85 1177.04 4.16 C1183.59 6.45 1188.88 10.09 1194.38 14.25 C1195.14 14.78 1195.89 15.3 1196.67 15.84 C1197.23 16.31 1197.8 16.77 1198.38 17.25 C1198.38 17.91 1198.38 18.57 1198.38 19.25 C1199.04 19.25 1199.7 19.25 1200.38 19.25 C1202.33 21.33 1202.33 21.33 1204.5 24.06 C1205.23 24.96 1205.95 25.85 1206.7 26.77 C1208.38 29.25 1208.38 29.25 1208.38 32.25 C1209.04 32.25 1209.7 32.25 1210.38 32.25 C1211.18 33.96 1211.97 35.67 1212.75 37.38 C1213.2 38.33 1213.64 39.28 1214.09 40.26 C1217.4 47.95 1217.72 54.74 1217.7 62.99 C1217.69 65.18 1217.72 67.37 1217.74 69.55 C1217.74 70.96 1217.74 72.37 1217.74 73.78 C1217.75 75.68 1217.75 75.68 1217.75 77.61 C1217.32 81.83 1216.21 84.46 1214.38 88.25 C1213.64 90.06 1212.91 91.87 1212.19 93.69 C1211.85 94.55 1211.5 95.42 1211.15 96.31 C1210.9 96.95 1210.64 97.59 1210.38 98.25 C1209.72 98.25 1209.06 98.25 1208.38 98.25 C1208.29 98.81 1208.19 99.38 1208.09 99.95 C1207.2 102.82 1205.79 104.65 1203.94 107 C1203.33 107.8 1202.71 108.6 1202.07 109.42 C1201.51 110.03 1200.96 110.63 1200.38 111.25 C1199.72 111.25 1199.06 111.25 1198.38 111.25 C1198.38 111.91 1198.38 112.57 1198.38 113.25 C1192.06 118.7 1184.99 122.9 1177.38 126.25 C1176.65 126.58 1175.91 126.92 1175.15 127.26 C1168.42 129.67 1161.88 130.55 1154.76 130.5 C1153.52 130.51 1153.52 130.51 1152.26 130.51 C1149.51 130.52 1146.75 130.51 1144 130.51 C1141.99 130.51 1139.99 130.51 1137.98 130.52 C1132.45 130.52 1126.93 130.52 1121.4 130.51 C1115.39 130.51 1109.38 130.52 1103.38 130.52 C1092.84 130.53 1082.31 130.53 1071.77 130.53 C1060.47 130.53 1049.16 130.53 1037.86 130.53 C1037.15 130.53 1036.43 130.53 1035.7 130.53 C1032.79 130.54 1029.88 130.54 1026.97 130.54 C997.45 130.55 967.93 130.56 938.41 130.55 C934.33 130.55 930.25 130.55 926.17 130.55 C925.36 130.55 924.55 130.55 923.71 130.55 C905.76 130.55 887.81 130.55 869.85 130.56 C865.75 130.56 861.65 130.56 857.55 130.56 C855.91 130.56 854.26 130.56 852.62 130.56 C851.8 130.56 850.99 130.56 850.15 130.56 C848.5 130.56 846.85 130.56 845.2 130.56 C798.39 130.57 751.59 130.58 704.78 130.57 C703.91 130.57 703.05 130.57 702.15 130.57 C692.49 130.57 682.82 130.57 673.16 130.57 C671.85 130.57 671.85 130.57 670.51 130.57 C663.26 130.57 663.26 130.57 659.92 130.57 C604.1 130.56 548.27 130.57 492.45 130.59 C478.38 130.59 464.31 130.6 450.25 130.6 C448.95 130.6 448.95 130.6 447.62 130.6 C420.93 130.61 394.24 130.62 367.55 130.62 C366.29 130.62 366.29 130.62 365.01 130.62 C346.62 130.62 328.22 130.62 309.83 130.62 C303.25 130.62 296.67 130.61 290.09 130.61 C288.45 130.61 286.81 130.61 285.18 130.61 C259.08 130.61 232.99 130.62 206.89 130.63 C179.88 130.64 152.87 130.64 125.86 130.63 C122.96 130.63 120.06 130.63 117.16 130.63 C116.45 130.63 115.74 130.63 115.01 130.63 C103.73 130.62 92.46 130.63 81.19 130.64 C70.11 130.65 59.02 130.65 47.94 130.63 C42.01 130.63 36.08 130.63 30.15 130.64 C24.76 130.65 19.37 130.65 13.98 130.63 C12.04 130.63 10.1 130.63 8.16 130.64 C-1.52 130.68 -10.42 130.67 -19.62 127.25 C-20.52 126.93 -21.42 126.61 -22.35 126.28 C-27.73 124.3 -33.16 121.92 -37.62 118.25 C-37.62 117.59 -37.62 116.93 -37.62 116.25 C-38.24 115.94 -38.86 115.63 -39.5 115.31 C-40.87 114.63 -42.25 113.94 -43.62 113.25 C-43.62 112.59 -43.62 111.93 -43.62 111.25 C-44.28 111.25 -44.94 111.25 -45.62 111.25 C-47.57 109.17 -47.57 109.17 -49.75 106.44 C-50.47 105.55 -51.19 104.65 -51.94 103.73 C-53.62 101.25 -53.62 101.25 -53.62 98.25 C-54.28 98.25 -54.94 98.25 -55.62 98.25 C-56.42 96.55 -57.21 94.84 -58 93.13 C-58.44 92.18 -58.88 91.22 -59.33 90.24 C-62.64 82.56 -62.96 75.76 -62.94 67.51 C-62.93 65.32 -62.96 63.14 -62.98 60.95 C-62.98 59.54 -62.98 58.13 -62.98 56.72 C-62.99 55.46 -62.99 54.19 -62.99 52.89 C-62.56 48.68 -61.45 46.05 -59.62 42.25 C-58.88 40.44 -58.15 38.63 -57.43 36.81 C-57.09 35.95 -56.74 35.08 -56.39 34.19 C-56.14 33.55 -55.88 32.91 -55.62 32.25 C-54.96 32.25 -54.3 32.25 -53.62 32.25 C-53.53 31.69 -53.43 31.13 -53.33 30.55 C-52.44 27.69 -51.03 25.85 -49.18 23.5 C-48.57 22.7 -47.95 21.9 -47.31 21.08 C-46.75 20.48 -46.2 19.87 -45.62 19.25 C-44.96 19.25 -44.3 19.25 -43.62 19.25 C-43.62 18.59 -43.62 17.93 -43.62 17.25 C-37.3 11.81 -30.23 7.6 -22.62 4.25 C-21.52 3.75 -21.52 3.75 -20.39 3.24 C-13.66 0.84 -7.12 -0.04 0 0 Z " fill="#000000" transform="translate(62.62002742290497,574.7481510043144)"/>
</svg>
